<svg width="1280" height="720" xmlns="http://www.w3.org/2000/svg" xmlns:xlink="http://www.w3.org/1999/xlink" overflow="hidden"><defs><clipPath id="clip0"><rect x="0" y="0" width="1280" height="720"/></clipPath></defs><g clip-path="url(#clip0)"><rect x="0" y="0" width="1280" height="720" fill="#FFFFFF"/><rect x="363" y="226" width="553" height="469" fill="#5B9BD5" fill-opacity="0.2"/><text fill="#7F7F7F" font-family="Calibri,Calibri_MSFontService,sans-serif" font-weight="400" font-size="13" transform="translate(372.832 686)">OpenFL</text><path d="M402.5 262.5C402.5 255.873 407.873 250.5 414.5 250.5L532.5 250.5C539.127 250.5 544.5 255.873 544.5 262.5L544.5 310.5C544.5 317.127 539.127 322.5 532.5 322.5L414.5 322.5C407.873 322.5 402.5 317.127 402.5 310.5Z" stroke="#41719C" stroke-width="1.33333" stroke-miterlimit="8" fill="#5B9BD5" fill-rule="evenodd"/><text fill="#FFFFFF" font-family="Calibri,Calibri_MSFontService,sans-serif" font-weight="400" font-size="21" transform="translate(425.454 281)">Python API <tspan font-size="21" x="-2.19333" y="26">component</tspan></text><path d="M402.5 108.308C402.5 90.1889 417.189 75.5001 435.308 75.5001L511.692 75.5001C529.811 75.5001 544.5 90.1889 544.5 108.308L544.5 115.692C544.5 133.811 529.811 148.5 511.692 148.5L435.308 148.5C417.189 148.5 402.5 133.811 402.5 115.692Z" stroke="#507E32" stroke-width="1.33333" stroke-miterlimit="8" fill="#70AD47" fill-rule="evenodd"/><text fill="#FFFFFF" font-family="Calibri,Calibri_MSFontService,sans-serif" font-weight="400" font-size="19" transform="translate(429.324 106)">Experiment <tspan font-size="19" x="9.57333" y="23">Manager</tspan></text><path d="M442.5 57.0001C442.5 39.6031 456.379 25.5001 473.5 25.5001 490.621 25.5001 504.5 39.6031 504.5 57.0001 504.5 74.397 490.621 88.5001 473.5 88.5001 456.379 88.5001 442.5 74.397 442.5 57.0001Z" stroke="#507E32" stroke-width="1.33333" stroke-miterlimit="8" fill="#70AD47" fill-rule="evenodd"/><path d="M77.5001 459.859C77.5001 441.988 91.9876 427.5 109.859 427.5L186.141 427.5C204.012 427.5 218.5 441.988 218.5 459.859L218.5 467.141C218.5 485.012 204.012 499.5 186.141 499.5L109.859 499.5C91.9876 499.5 77.5001 485.012 77.5001 467.141Z" stroke="#507E32" stroke-width="1.33333" stroke-miterlimit="8" fill="#70AD47" fill-rule="evenodd"/><text fill="#FFFFFF" font-family="Calibri,Calibri_MSFontService,sans-serif" font-weight="400" font-size="19" transform="translate(116.438 458)">Director <tspan font-size="19" x="-3.30667" y="23">Manager</tspan></text><path d="M116.5 409C116.5 391.603 130.603 377.5 148 377.5 165.397 377.5 179.5 391.603 179.5 409 179.5 426.397 165.397 440.5 148 440.5 130.603 440.5 116.5 426.397 116.5 409Z" stroke="#507E32" stroke-width="1.33333" stroke-miterlimit="8" fill="#70AD47" fill-rule="evenodd"/><path d="M1062.5 461.309C1062.5 443.189 1077.19 428.5 1095.31 428.5L1170.69 428.5C1188.81 428.5 1203.5 443.189 1203.5 461.309L1203.5 468.692C1203.5 486.811 1188.81 501.5 1170.69 501.5L1095.31 501.5C1077.19 501.5 1062.5 486.811 1062.5 468.692Z" stroke="#507E32" stroke-width="1.33333" stroke-miterlimit="8" fill="#70AD47" fill-rule="evenodd"/><text fill="#FFFFFF" font-family="Calibri,Calibri_MSFontService,sans-serif" font-weight="400" font-size="19" transform="translate(1085.4 459)">Collaborator <tspan font-size="19" x="13.1267" y="23">Manager</tspan></text><path d="M1101.5 410.5C1101.5 393.379 1115.6 379.5 1133 379.5 1150.4 379.5 1164.5 393.379 1164.5 410.5 1164.5 427.621 1150.4 441.5 1133 441.5 1115.6 441.5 1101.5 427.621 1101.5 410.5Z" stroke="#507E32" stroke-width="1.33333" stroke-miterlimit="8" fill="#70AD47" fill-rule="evenodd"/><rect x="388" y="403" width="167" height="254" fill="#70AD47" fill-opacity="0.501961"/><text fill="#7F7F7F" font-family="Calibri,Calibri_MSFontService,sans-serif" font-weight="400" font-size="12" transform="translate(397.693 649)">Central node</text><path d="M400.5 440.5C400.5 433.873 405.873 428.5 412.5 428.5L529.5 428.5C536.127 428.5 541.5 433.873 541.5 440.5L541.5 488.5C541.5 495.127 536.127 500.5 529.5 500.5L412.5 500.5C405.873 500.5 400.5 495.127 400.5 488.5Z" stroke="#41719C" stroke-width="1.33333" stroke-miterlimit="8" fill="#5B9BD5" fill-rule="evenodd"/><text fill="#FFFFFF" font-family="Calibri,Calibri_MSFontService,sans-serif" font-weight="400" font-size="21" transform="translate(435.081 471)">Director</text><rect x="723" y="407" width="167" height="253" fill="#70AD47" fill-opacity="0.501961"/><text fill="#7F7F7F" font-family="Calibri,Calibri_MSFontService,sans-serif" font-weight="400" font-size="12" transform="translate(732.783 652)">Collaborator node</text><path d="M736.5 439.667C736.5 432.947 741.947 427.5 748.667 427.5L866.333 427.5C873.053 427.5 878.5 432.947 878.5 439.667L878.5 488.333C878.5 495.053 873.053 500.5 866.333 500.5L748.667 500.5C741.947 500.5 736.5 495.053 736.5 488.333Z" stroke="#41719C" stroke-width="1.33333" stroke-miterlimit="8" fill="#5B9BD5" fill-rule="evenodd"/><text fill="#FFFFFF" font-family="Calibri,Calibri_MSFontService,sans-serif" font-weight="400" font-size="21" transform="translate(781.363 470)">Envoy</text><path d="M400.5 576.5C400.5 569.873 405.873 564.5 412.5 564.5L529.5 564.5C536.127 564.5 541.5 569.873 541.5 576.5L541.5 624.5C541.5 631.127 536.127 636.5 529.5 636.5L412.5 636.5C405.873 636.5 400.5 631.127 400.5 624.5Z" stroke="#41719C" stroke-width="1.33333" stroke-miterlimit="8" fill="#5B9BD5" fill-rule="evenodd"/><text fill="#FFFFFF" font-family="Calibri,Calibri_MSFontService,sans-serif" font-weight="400" font-size="21" transform="translate(422.856 607)">Aggregator</text><path d="M736.5 576.5C736.5 569.873 741.873 564.5 748.5 564.5L866.5 564.5C873.127 564.5 878.5 569.873 878.5 576.5L878.5 624.5C878.5 631.127 873.127 636.5 866.5 636.5L748.5 636.5C741.873 636.5 736.5 631.127 736.5 624.5Z" stroke="#41719C" stroke-width="1.33333" stroke-miterlimit="8" fill="#5B9BD5" fill-rule="evenodd"/><text fill="#FFFFFF" font-family="Calibri,Calibri_MSFontService,sans-serif" font-weight="400" font-size="21" transform="translate(753.286 607)">Collaborator</text><path d="M0.333333-1.02799e-06 0.333628 95.462-0.333039 95.462-0.333333 1.02799e-06ZM4.00029 94.1286 0.000314961 102.129-3.99971 94.1286Z" fill="#70AD47" transform="matrix(-1 0 0 1 473.5 148.5)"/><rect x="385" y="163" width="183" height="48" fill="#FFFFFF"/><text fill="#7F7F7F" font-family="Calibri,Calibri_MSFontService,sans-serif" font-weight="400" font-size="16" transform="translate(398.235 183)">Provides FL plans, Tasks, <tspan font-size="16" x="8.10666" y="19">Models, Data Loaders</tspan></text><path d="M218.501 463.167 393.452 463.846 393.449 464.513 218.499 463.833ZM392.132 460.175 400.117 464.206 392.101 468.174Z" fill="#70AD47"/><rect x="240" y="419" width="116" height="88" fill="#FFFFFF"/><text fill="#7F7F7F" font-family="Calibri,Calibri_MSFontService,sans-serif" font-weight="400" font-size="16" transform="translate(265.803 439)">Launches.<tspan font-size="16" x="-12.8733" y="19">Sets up global </tspan><tspan font-size="16" x="-2.72668" y="38">Federation </tspan><tspan font-size="16" x="6.99332" y="58">settings</tspan></text><path d="M1062.5 465.173 885.164 463.882 885.169 463.215 1062.5 464.506ZM886.471 467.558 878.5 463.5 886.529 459.558Z" fill="#70AD47"/><rect x="921" y="419" width="131" height="88" fill="#FFFFFF"/><text fill="#7F7F7F" font-family="Calibri,Calibri_MSFontService,sans-serif" font-weight="400" font-size="16" transform="translate(954.221 439)">Launches.<tspan font-size="16" x="-12.4333" y="19">Provides local </tspan><tspan font-size="16" x="-12.18" y="38">dataset Shard </tspan><tspan font-size="16" x="-4.58667" y="58">Descriptors</tspan></text><path d="M471.833 549.5 471.833 557.654 471.167 557.654 471.167 549.5ZM475.5 556.321 471.5 564.321 467.5 556.321Z" fill="#5B9BD5"/><text fill="#7F7F7F" font-family="Calibri,Calibri_MSFontService,sans-serif" font-weight="400" font-size="13" transform="translate(410.583 524)">Creates an instance to <tspan font-size="13" x="-12.1667" y="16">maintain an FL experiment</tspan></text><path d="M471.5 499.5 471.5 512.274" stroke="#5B9BD5" stroke-width="0.666667" stroke-miterlimit="8" fill="none" fill-rule="evenodd"/><text fill="#7F7F7F" font-family="Calibri,Calibri_MSFontService,sans-serif" font-weight="400" font-size="13" transform="translate(747.029 527)">Creates an instance to <tspan font-size="13" x="-12.1667" y="16">maintain an FL experiment</tspan></text><path d="M0 0 0.000209974 11.1366" stroke="#5B9BD5" stroke-width="0.666667" stroke-miterlimit="8" fill="none" fill-rule="evenodd" transform="matrix(-1 0 0 1 807.5 500.5)"/><path d="M807.833 553.5 807.833 557.97 807.167 557.97 807.167 553.5ZM811.5 556.637 807.5 564.637 803.5 556.637Z" fill="#5B9BD5"/><text fill="#7F7F7F" font-family="Calibri,Calibri_MSFontService,sans-serif" font-weight="400" font-size="13" transform="translate(561.516 436)">Communicates dataset info, <tspan font-size="13" x="18.6666" y="16">Sends status updates</tspan><tspan font-size="13" x="25.5564" y="49">Approves, Sends FL </tspan><tspan font-size="13" x="43.8031" y="65">experiments</tspan><tspan font-size="13" x="2.12366" y="139">Sends locally tuned tensors </tspan><tspan font-size="13" x="21.5436" y="155">and training metrics</tspan><tspan font-size="13" x="18.4586" y="182">Sends tasks and initial </tspan><tspan font-size="13" x="57.5386" y="198">tensors</tspan></text><path d="M548.167 440.167 553.5 440.167 553.5 440.833 548.167 440.833ZM555.5 440.167 560.833 440.167 560.833 440.833 555.5 440.833ZM562.833 440.167 568.167 440.167 568.167 440.833 562.833 440.833ZM570.167 440.167 575.5 440.167 575.5 440.833 570.167 440.833ZM577.5 440.167 582.833 440.167 582.833 440.833 577.5 440.833ZM584.833 440.167 590.167 440.167 590.167 440.833 584.833 440.833ZM592.167 440.167 597.5 440.167 597.5 440.833 592.167 440.833ZM599.5 440.167 604.833 440.167 604.833 440.833 599.5 440.833ZM606.833 440.167 612.167 440.167 612.167 440.833 606.833 440.833ZM614.167 440.167 619.5 440.167 619.5 440.833 614.167 440.833ZM621.5 440.167 626.833 440.167 626.833 440.833 621.5 440.833ZM628.833 440.167 634.167 440.167 634.167 440.833 628.833 440.833ZM636.167 440.167 641.5 440.167 641.5 440.833 636.167 440.833ZM643.5 440.167 648.833 440.167 648.833 440.833 643.5 440.833ZM650.833 440.167 656.167 440.167 656.167 440.833 650.833 440.833ZM658.167 440.167 663.5 440.167 663.5 440.833 658.167 440.833ZM665.5 440.167 670.833 440.167 670.833 440.833 665.5 440.833ZM672.833 440.167 678.167 440.167 678.167 440.833 672.833 440.833ZM680.167 440.167 685.5 440.167 685.5 440.833 680.167 440.833ZM687.5 440.167 692.833 440.167 692.833 440.833 687.5 440.833ZM694.833 440.167 700.167 440.167 700.167 440.833 694.833 440.833ZM702.167 440.167 707.5 440.167 707.5 440.833 702.167 440.833ZM709.5 440.167 714.833 440.167 714.833 440.833 709.5 440.833ZM716.833 440.167 722.167 440.167 722.167 440.833 716.833 440.833ZM724.167 440.167 729.5 440.167 729.5 440.833 724.167 440.833ZM731.5 440.167 736.118 440.167 736.118 440.833 731.5 440.833ZM549.5 444.5 541.5 440.5 549.5 436.5Z" fill="#5B9BD5"/><path d="M6.6667-0.33333 12-0.333327 12 0.33334 6.6667 0.333337ZM14-0.333326 19.3334-0.333323 19.3334 0.333344 14 0.333341ZM21.3334-0.333322 26.6667-0.333319 26.6667 0.333348 21.3334 0.333345ZM28.6667-0.333318 34-0.333315 34 0.333352 28.6667 0.333349ZM36-0.333314 41.3334-0.333311 41.3334 0.333356 36 0.333353ZM43.3334-0.33331 48.6667-0.333307 48.6667 0.33336 43.3334 0.333357ZM50.6667-0.333306 56-0.333303 56 0.333364 50.6667 0.333361ZM58-0.333302 63.3334-0.333299 63.3334 0.333367 58 0.333365ZM65.3334-0.333298 70.6667-0.333295 70.6667 0.333371 65.3334 0.333369ZM72.6667-0.333294 78-0.333291 78 0.333375 72.6667 0.333373ZM80-0.33329 85.3334-0.333287 85.3334 0.333379 80 0.333376ZM87.3334-0.333286 92.6667-0.333283 92.6667 0.333383 87.3334 0.33338ZM94.6667-0.333282 100-0.333279 100 0.333387 94.6667 0.333384ZM102-0.333278 107.333-0.333275 107.333 0.333391 102 0.333388ZM109.333-0.333274 114.667-0.333271 114.667 0.333395 109.333 0.333392ZM116.667-0.33327 122-0.333268 122 0.333399 116.667 0.333396ZM124-0.333266 129.333-0.333264 129.333 0.333403 124 0.3334ZM131.333-0.333262 136.667-0.33326 136.667 0.333407 131.333 0.333404ZM138.667-0.333259 144-0.333256 144 0.333411 138.667 0.333408ZM146-0.333255 151.333-0.333252 151.333 0.333415 146 0.333412ZM153.333-0.333251 158.667-0.333248 158.667 0.333419 153.333 0.333416ZM160.667-0.333247 166-0.333244 166 0.333423 160.667 0.33342ZM168-0.333243 173.333-0.33324 173.333 0.333427 168 0.333424ZM175.333-0.333239 180.667-0.333236 180.667 0.333431 175.333 0.333428ZM182.667-0.333235 188-0.333232 188 0.333435 182.667 0.333432ZM190-0.333231 194.618-0.333228 194.618 0.333438 190 0.333436ZM8 4 0 0 8-4Z" fill="#5B9BD5" transform="matrix(-1 0 0 1 736.118 491.5)"/><path d="M548.167 581.167 553.5 581.167 553.5 581.833 548.167 581.833ZM555.5 581.167 560.833 581.167 560.833 581.833 555.5 581.833ZM562.833 581.167 568.167 581.167 568.167 581.833 562.833 581.833ZM570.167 581.167 575.5 581.167 575.5 581.833 570.167 581.833ZM577.5 581.167 582.833 581.167 582.833 581.833 577.5 581.833ZM584.833 581.167 590.167 581.167 590.167 581.833 584.833 581.833ZM592.167 581.167 597.5 581.167 597.5 581.833 592.167 581.833ZM599.5 581.167 604.833 581.167 604.833 581.833 599.5 581.833ZM606.833 581.167 612.167 581.167 612.167 581.833 606.833 581.833ZM614.167 581.167 619.5 581.167 619.5 581.833 614.167 581.833ZM621.5 581.167 626.833 581.167 626.833 581.833 621.5 581.833ZM628.833 581.167 634.167 581.167 634.167 581.833 628.833 581.833ZM636.167 581.167 641.5 581.167 641.5 581.833 636.167 581.833ZM643.5 581.167 648.833 581.167 648.833 581.833 643.5 581.833ZM650.833 581.167 656.167 581.167 656.167 581.833 650.833 581.833ZM658.167 581.167 663.5 581.167 663.5 581.833 658.167 581.833ZM665.5 581.167 670.833 581.167 670.833 581.833 665.5 581.833ZM672.833 581.167 678.167 581.167 678.167 581.833 672.833 581.833ZM680.167 581.167 685.5 581.167 685.5 581.833 680.167 581.833ZM687.5 581.167 692.833 581.167 692.833 581.833 687.5 581.833ZM694.833 581.167 700.167 581.167 700.167 581.833 694.833 581.833ZM702.167 581.167 707.5 581.167 707.5 581.833 702.167 581.833ZM709.5 581.167 714.833 581.167 714.833 581.833 709.5 581.833ZM716.833 581.167 722.167 581.167 722.167 581.833 716.833 581.833ZM724.167 581.167 729.5 581.167 729.5 581.833 724.167 581.833ZM731.5 581.167 736.118 581.167 736.118 581.833 731.5 581.833ZM549.5 585.5 541.5 581.5 549.5 577.5Z" fill="#5B9BD5"/><path d="M6.6667-0.33333 12-0.333327 12 0.33334 6.6667 0.333337ZM14-0.333326 19.3334-0.333323 19.3334 0.333344 14 0.333341ZM21.3334-0.333322 26.6667-0.333319 26.6667 0.333348 21.3334 0.333345ZM28.6667-0.333318 34-0.333315 34 0.333352 28.6667 0.333349ZM36-0.333314 41.3334-0.333311 41.3334 0.333356 36 0.333353ZM43.3334-0.33331 48.6667-0.333307 48.6667 0.33336 43.3334 0.333357ZM50.6667-0.333306 56-0.333303 56 0.333364 50.6667 0.333361ZM58-0.333302 63.3334-0.333299 63.3334 0.333367 58 0.333365ZM65.3334-0.333298 70.6667-0.333295 70.6667 0.333371 65.3334 0.333369ZM72.6667-0.333294 78-0.333291 78 0.333375 72.6667 0.333373ZM80-0.33329 85.3334-0.333287 85.3334 0.333379 80 0.333376ZM87.3334-0.333286 92.6667-0.333283 92.6667 0.333383 87.3334 0.33338ZM94.6667-0.333282 100-0.333279 100 0.333387 94.6667 0.333384ZM102-0.333278 107.333-0.333275 107.333 0.333391 102 0.333388ZM109.333-0.333274 114.667-0.333271 114.667 0.333395 109.333 0.333392ZM116.667-0.33327 122-0.333268 122 0.333399 116.667 0.333396ZM124-0.333266 129.333-0.333264 129.333 0.333403 124 0.3334ZM131.333-0.333262 136.667-0.33326 136.667 0.333407 131.333 0.333404ZM138.667-0.333259 144-0.333256 144 0.333411 138.667 0.333408ZM146-0.333255 151.333-0.333252 151.333 0.333415 146 0.333412ZM153.333-0.333251 158.667-0.333248 158.667 0.333419 153.333 0.333416ZM160.667-0.333247 166-0.333244 166 0.333423 160.667 0.33342ZM168-0.333243 173.333-0.33324 173.333 0.333427 168 0.333424ZM175.333-0.333239 180.667-0.333236 180.667 0.333431 175.333 0.333428ZM182.667-0.333235 188-0.333232 188 0.333435 182.667 0.333432ZM190-0.333231 194.618-0.333228 194.618 0.333438 190 0.333436ZM8 4 0 0 8-4Z" fill="#5B9BD5" transform="matrix(-1 0 0 1 736.118 624.5)"/><path d="M429.833 390.5 429.833 395.833 429.167 395.833 429.167 390.5ZM429.833 397.833 429.833 403.167 429.167 403.167 429.167 397.833ZM429.833 405.167 429.833 410.5 429.167 410.5 429.167 405.167ZM429.833 412.5 429.833 417.833 429.167 417.833 429.167 412.5ZM429.833 419.833 429.833 422.069 429.167 422.069 429.167 419.833ZM433.5 420.736 429.5 428.736 425.5 420.736Z" fill="#5B9BD5"/><path d="M0.333333-2.36129e-06 0.333371 5.33333-0.333296 5.33334-0.333333 2.36129e-06ZM0.333385 7.33333 0.333391 8.15391-0.333276 8.15391-0.333281 7.33334ZM4.00005 6.82055 0.000104987 14.8206-3.99995 6.82061Z" fill="#5B9BD5" transform="matrix(1 0 0 -1 516.5 337.321)"/><text fill="#7F7F7F" font-family="Calibri,Calibri_MSFontService,sans-serif" font-weight="400" font-size="13" transform="translate(396.932 365)">Registers FL <tspan font-size="13" x="-1.83331" y="16">experiments</tspan><tspan font-size="13" x="73.5058" y="-16">Sends info about </tspan><tspan font-size="13" x="77.1725" y="0">the Federation. </tspan><tspan font-size="13" x="75.4192" y="16">Returns training </tspan><tspan font-size="13" x="96.8392" y="32">artifacts</tspan></text><path d="M429.5 322.5 429.5 345.939" stroke="#5B9BD5" stroke-width="0.666667" stroke-miterlimit="8" stroke-dasharray="5.33333 2" fill="none" fill-rule="evenodd"/><path d="M516.5 407.5 516.5 429.298" stroke="#5B9BD5" stroke-width="0.666667" stroke-miterlimit="8" stroke-dasharray="5.33333 2" fill="none" fill-rule="evenodd"/></g></svg>