<svg width="1280" height="720" xmlns="http://www.w3.org/2000/svg" xmlns:xlink="http://www.w3.org/1999/xlink" overflow="hidden"><defs><clipPath id="clip0"><rect x="0" y="0" width="1280" height="720"/></clipPath></defs><g clip-path="url(#clip0)"><rect x="0" y="0" width="1280" height="720" fill="#FFFFFF"/><rect x="363" y="226" width="553" height="469" fill="#5B9BD5" fill-opacity="0.2"/><text fill="#7F7F7F" font-family="Calibri,Calibri_MSFontService,sans-serif" font-weight="400" font-size="13" transform="translate(372.832 686)">OpenFL</text><path d="M402.5 262.5C402.5 255.873 407.873 250.5 414.5 250.5L532.5 250.5C539.127 250.5 544.5 255.873 544.5 262.5L544.5 310.5C544.5 317.127 539.127 322.5 532.5 322.5L414.5 322.5C407.873 322.5 402.5 317.127 402.5 310.5Z" stroke="#41719C" stroke-width="1.33333" stroke-miterlimit="8" fill="#5B9BD5" fill-rule="evenodd"/><text fill="#FFFFFF" font-family="Calibri,Calibri_MSFontService,sans-serif" font-weight="400" font-size="21" transform="translate(425.454 281)">Python API <tspan font-size="21" x="-2.19333" y="26">component</tspan></text><path d="M402.5 108.308C402.5 90.1889 417.189 75.5001 435.308 75.5001L511.692 75.5001C529.811 75.5001 544.5 90.1889 544.5 108.308L544.5 115.692C544.5 133.811 529.811 148.5 511.692 148.5L435.308 148.5C417.189 148.5 402.5 133.811 402.5 115.692Z" stroke="#507E32" stroke-width="1.33333" stroke-miterlimit="8" fill="#70AD47" fill-rule="evenodd"/><text fill="#FFFFFF" font-family="Calibri,Calibri_MSFontService,sans-serif" font-weight="400" font-size="19" transform="translate(429.324 106)">Experiment <tspan font-size="19" x="9.57333" y="23">Manager</tspan></text><path d="M442.5 57.0001C442.5 39.6031 456.379 25.5001 473.5 25.5001 490.621 25.5001 504.5 39.6031 504.5 57.0001 504.5 74.397 490.621 88.5001 473.5 88.5001 456.379 88.5001 442.5 74.397 442.5 57.0001Z" stroke="#507E32" stroke-width="1.33333" stroke-miterlimit="8" fill="#70AD47" fill-rule="evenodd"/><path d="M77.5001 459.859C77.5001 441.988 91.9876 427.5 109.859 427.5L186.141 427.5C204.012 427.5 218.5 441.988 218.5 459.859L218.5 467.141C218.5 485.012 204.012 499.5 186.141 499.5L109.859 499.5C91.9876 499.5 77.5001 485.012 77.5001 467.141Z" stroke="#507E32" stroke-width="1.33333" stroke-miterlimit="8" fill="#70AD47" fill-rule="evenodd"/><text fill="#FFFFFF" font-family="Calibri,Calibri_MSFontService,sans-serif" font-weight="400" font-size="19" transform="translate(116.438 458)">Director <tspan font-size="19" x="-3.30667" y="23">Manager</tspan></text><path d="M116.5 409C116.5 391.603 130.603 377.5 148 377.5 165.397 377.5 179.5 391.603 179.5 409 179.5 426.397 165.397 440.5 148 440.5 130.603 440.5 116.5 426.397 116.5 409Z" stroke="#507E32" stroke-width="1.33333" stroke-miterlimit="8" fill="#70AD47" fill-rule="evenodd"/><path d="M1062.5 461.309C1062.5 443.189 1077.19 428.5 1095.31 428.5L1170.69 428.5C1188.81 428.5 1203.5 443.189 1203.5 461.309L1203.5 468.692C1203.5 486.811 1188.81 501.5 1170.69 501.5L1095.31 501.5C1077.19 501.5 1062.5 486.811 1062.5 468.692Z" stroke="#507E32" stroke-width="1.33333" stroke-miterlimit="8" fill="#70AD47" fill-rule="evenodd"/><text fill="#FFFFFF" font-family="Calibri,Calibri_MSFontService,sans-serif" font-weight="400" font-size="19" transform="translate(1085.4 459)">Collaborator <tspan font-size="19" x="13.1267" y="23">Manager</tspan></text><path d="M1101.5 410.5C1101.5 393.379 1115.6 379.5 1133 379.5 1150.4 379.5 1164.5 393.379 1164.5 410.5 1164.5 427.621 1150.4 441.5 1133 441.5 1115.6 441.5 1101.5 427.621 1101.5 410.5Z" stroke="#507E32" stroke-width="1.33333" stroke-miterlimit="8" fill="#70AD47" fill-rule="evenodd"/><rect x="387" y="408" width="163" height="258" fill="#70AD47" fill-opacity="0.501961"/><text fill="#7F7F7F" font-family="Calibri,Calibri_MSFontService,sans-serif" font-weight="400" font-size="12" transform="translate(396.998 657)">Central node</text><path d="M400.5 440.5C400.5 433.873 405.873 428.5 412.5 428.5L529.5 428.5C536.127 428.5 541.5 433.873 541.5 440.5L541.5 488.5C541.5 495.127 536.127 500.5 529.5 500.5L412.5 500.5C405.873 500.5 400.5 495.127 400.5 488.5Z" stroke="#41719C" stroke-width="1.33333" stroke-miterlimit="8" fill="#5B9BD5" fill-rule="evenodd"/><text fill="#FFFFFF" font-family="Calibri,Calibri_MSFontService,sans-serif" font-weight="400" font-size="21" transform="translate(435.081 471)">Director</text><rect x="725" y="408" width="167" height="258" fill="#70AD47" fill-opacity="0.501961"/><text fill="#7F7F7F" font-family="Calibri,Calibri_MSFontService,sans-serif" font-weight="400" font-size="12" transform="translate(734.993 657)">Collaborator node</text><path d="M736.5 439.667C736.5 432.947 741.947 427.5 748.667 427.5L866.333 427.5C873.053 427.5 878.5 432.947 878.5 439.667L878.5 488.333C878.5 495.053 873.053 500.5 866.333 500.5L748.667 500.5C741.947 500.5 736.5 495.053 736.5 488.333Z" stroke="#41719C" stroke-width="1.33333" stroke-miterlimit="8" fill="#5B9BD5" fill-rule="evenodd"/><text fill="#FFFFFF" font-family="Calibri,Calibri_MSFontService,sans-serif" font-weight="400" font-size="21" transform="translate(781.363 470)">Envoy</text><path d="M400.5 576.5C400.5 569.873 405.873 564.5 412.5 564.5L529.5 564.5C536.127 564.5 541.5 569.873 541.5 576.5L541.5 624.5C541.5 631.127 536.127 636.5 529.5 636.5L412.5 636.5C405.873 636.5 400.5 631.127 400.5 624.5Z" stroke="#41719C" stroke-width="1.33333" stroke-miterlimit="8" fill="#5B9BD5" fill-rule="evenodd"/><text fill="#FFFFFF" font-family="Calibri,Calibri_MSFontService,sans-serif" font-weight="400" font-size="21" transform="translate(422.856 607)">Aggregator</text><path d="M736.5 576.5C736.5 569.873 741.873 564.5 748.5 564.5L866.5 564.5C873.127 564.5 878.5 569.873 878.5 576.5L878.5 624.5C878.5 631.127 873.127 636.5 866.5 636.5L748.5 636.5C741.873 636.5 736.5 631.127 736.5 624.5Z" stroke="#41719C" stroke-width="1.33333" stroke-miterlimit="8" fill="#5B9BD5" fill-rule="evenodd"/><text fill="#FFFFFF" font-family="Calibri,Calibri_MSFontService,sans-serif" font-weight="400" font-size="21" transform="translate(753.286 607)">Collaborator</text><path d="M0.333333-1.02799e-06 0.333628 95.462-0.333039 95.462-0.333333 1.02799e-06ZM4.00029 94.1286 0.000314961 102.129-3.99971 94.1286Z" fill="#70AD47" transform="matrix(-1 0 0 1 473.5 148.5)"/><rect x="385" y="163" width="183" height="48" fill="#FFFFFF"/><text fill="#7F7F7F" font-family="Calibri,Calibri_MSFontService,sans-serif" font-weight="400" font-size="16" transform="translate(398.235 183)">Provides FL plans, Tasks, <tspan font-size="16" x="8.10666" y="19">Models, Data Loaders</tspan></text><path d="M218.501 463.167 393.452 463.846 393.449 464.513 218.499 463.833ZM392.132 460.175 400.117 464.206 392.101 468.174Z" fill="#70AD47"/><rect x="240" y="419" width="116" height="88" fill="#FFFFFF"/><text fill="#7F7F7F" font-family="Calibri,Calibri_MSFontService,sans-serif" font-weight="400" font-size="16" transform="translate(265.803 439)">Launches.<tspan font-size="16" x="-12.8733" y="19">Sets</tspan><tspan font-size="16" x="17.7067" y="19">up</tspan><tspan font-size="16" x="38.04" y="19">global </tspan><tspan font-size="16" x="-2.72668" y="38">Federation </tspan><tspan font-size="16" x="6.99332" y="58">settings</tspan></text><path d="M1062.5 465.173 885.164 463.882 885.169 463.215 1062.5 464.506ZM886.471 467.558 878.5 463.5 886.529 459.558Z" fill="#70AD47"/><rect x="921" y="419" width="131" height="88" fill="#FFFFFF"/><text fill="#7F7F7F" font-family="Calibri,Calibri_MSFontService,sans-serif" font-weight="400" font-size="16" transform="translate(954.221 439)">Launches.<tspan font-size="16" x="-12.4333" y="19">Provides local </tspan><tspan font-size="16" x="-12.18" y="38">dataset Shard </tspan><tspan font-size="16" x="-4.58667" y="58">Descriptors</tspan></text><path d="M471.833 549.5 471.833 557.654 471.167 557.654 471.167 549.5ZM475.5 556.321 471.5 564.321 467.5 556.321Z" fill="#5B9BD5"/><text fill="#7F7F7F" font-family="Calibri,Calibri_MSFontService,sans-serif" font-weight="400" font-size="13" transform="translate(410.583 524)">Creates an instance to <tspan font-size="13" x="-12.1667" y="16">maintain an FL experiment</tspan></text><path d="M471.5 499.5 471.5 512.274" stroke="#5B9BD5" stroke-width="0.666667" stroke-miterlimit="8" fill="none" fill-rule="evenodd"/><text fill="#7F7F7F" font-family="Calibri,Calibri_MSFontService,sans-serif" font-weight="400" font-size="13" transform="translate(747.029 527)">Creates an instance to <tspan font-size="13" x="-12.1667" y="16">maintain an FL experiment</tspan></text><path d="M0 0 0.000209974 11.1366" stroke="#5B9BD5" stroke-width="0.666667" stroke-miterlimit="8" fill="none" fill-rule="evenodd" transform="matrix(-1 0 0 1 807.5 500.5)"/><path d="M807.833 553.5 807.833 557.97 807.167 557.97 807.167 553.5ZM811.5 556.637 807.5 564.637 803.5 556.637Z" fill="#5B9BD5"/><text fill="#7F7F7F" font-family="Calibri,Calibri_MSFontService,sans-serif" font-weight="400" font-size="13" transform="translate(561.516 436)">Communicates dataset info, <tspan font-size="13" x="18.6666" y="16">Sends status updates</tspan><tspan font-size="13" x="25.5564" y="49">Approves, Sends FL </tspan><tspan font-size="13" x="43.8031" y="65">experiments</tspan><tspan font-size="13" x="2.12366" y="139">Sends locally tuned tensors </tspan><tspan font-size="13" x="21.5436" y="155">and training metrics</tspan><tspan font-size="13" x="18.4586" y="182">Sends tasks and initial </tspan><tspan font-size="13" x="57.5386" y="198">tensors</tspan></text><path d="M541.5 440.167 546.833 440.167 546.833 440.833 541.5 440.833ZM548.833 440.167 554.167 440.167 554.167 440.833 548.833 440.833ZM556.167 440.167 561.5 440.167 561.5 440.833 556.167 440.833ZM563.5 440.167 568.833 440.167 568.833 440.833 563.5 440.833ZM570.833 440.167 576.167 440.167 576.167 440.833 570.833 440.833ZM578.167 440.167 583.5 440.167 583.5 440.833 578.167 440.833ZM585.5 440.167 590.833 440.167 590.833 440.833 585.5 440.833ZM592.833 440.167 598.167 440.167 598.167 440.833 592.833 440.833ZM600.167 440.167 605.5 440.167 605.5 440.833 600.167 440.833ZM607.5 440.167 612.833 440.167 612.833 440.833 607.5 440.833ZM614.833 440.167 620.167 440.167 620.167 440.833 614.833 440.833ZM622.167 440.167 627.5 440.167 627.5 440.833 622.167 440.833ZM629.5 440.167 634.833 440.167 634.833 440.833 629.5 440.833ZM636.833 440.167 642.167 440.167 642.167 440.833 636.833 440.833ZM644.167 440.167 649.5 440.167 649.5 440.833 644.167 440.833ZM651.5 440.167 656.833 440.167 656.833 440.833 651.5 440.833ZM658.833 440.167 664.167 440.167 664.167 440.833 658.833 440.833ZM666.167 440.167 671.5 440.167 671.5 440.833 666.167 440.833ZM673.5 440.167 678.833 440.167 678.833 440.833 673.5 440.833ZM680.833 440.167 686.167 440.167 686.167 440.833 680.833 440.833ZM688.167 440.167 693.5 440.167 693.5 440.833 688.167 440.833ZM695.5 440.167 700.833 440.167 700.833 440.833 695.5 440.833ZM702.833 440.167 708.167 440.167 708.167 440.833 702.833 440.833ZM710.167 440.167 715.5 440.167 715.5 440.833 710.167 440.833ZM717.5 440.167 722.833 440.167 722.833 440.833 717.5 440.833ZM724.833 440.167 729.451 440.167 729.451 440.833 724.833 440.833ZM728.118 436.5 736.118 440.5 728.118 444.5Z" fill="#5B9BD5"/><path d="M1.79817e-07-0.333333 5.33333-0.33333 5.33333 0.333336-1.79817e-07 0.333333ZM7.33333-0.333329 12.6667-0.333326 12.6667 0.33334 7.33333 0.333337ZM14.6667-0.333325 20-0.333323 20 0.333344 14.6667 0.333341ZM22-0.333321 27.3333-0.333319 27.3333 0.333348 22 0.333345ZM29.3333-0.333318 34.6667-0.333315 34.6667 0.333352 29.3333 0.333349ZM36.6667-0.333314 42-0.333311 42 0.333356 36.6667 0.333353ZM44-0.33331 49.3333-0.333307 49.3333 0.33336 44 0.333357ZM51.3333-0.333306 56.6667-0.333303 56.6667 0.333364 51.3333 0.333361ZM58.6667-0.333302 64-0.333299 64 0.333368 58.6667 0.333365ZM66-0.333298 71.3333-0.333295 71.3333 0.333372 66 0.333369ZM73.3333-0.333294 78.6667-0.333291 78.6667 0.333376 73.3333 0.333373ZM80.6667-0.33329 86-0.333287 86 0.33338 80.6667 0.333377ZM88-0.333286 93.3333-0.333283 93.3333 0.333384 88 0.333381ZM95.3333-0.333282 100.667-0.333279 100.667 0.333388 95.3333 0.333385ZM102.667-0.333278 108-0.333275 108 0.333392 102.667 0.333389ZM110-0.333274 115.333-0.333271 115.333 0.333396 110 0.333393ZM117.333-0.33327 122.667-0.333267 122.667 0.3334 117.333 0.333397ZM124.667-0.333266 130-0.333263 130 0.333403 124.667 0.333401ZM132-0.333262 137.333-0.333259 137.333 0.333407 132 0.333405ZM139.333-0.333258 144.667-0.333255 144.667 0.333411 139.333 0.333408ZM146.667-0.333254 152-0.333251 152 0.333415 146.667 0.333412ZM154-0.33325 159.333-0.333247 159.333 0.333419 154 0.333416ZM161.333-0.333246 166.667-0.333243 166.667 0.333423 161.333 0.33342ZM168.667-0.333242 174-0.333239 174 0.333427 168.667 0.333424ZM176-0.333238 181.333-0.333236 181.333 0.333431 176 0.333428ZM183.333-0.333234 187.951-0.333232 187.951 0.333435 183.333 0.333432ZM186.618-3.9999 194.618 0.000104987 186.618 4.0001Z" fill="#5B9BD5" transform="matrix(-1 0 0 1 736.118 491.5)"/><path d="M541.5 581.167 546.833 581.167 546.833 581.833 541.5 581.833ZM548.833 581.167 554.167 581.167 554.167 581.833 548.833 581.833ZM556.167 581.167 561.5 581.167 561.5 581.833 556.167 581.833ZM563.5 581.167 568.833 581.167 568.833 581.833 563.5 581.833ZM570.833 581.167 576.167 581.167 576.167 581.833 570.833 581.833ZM578.167 581.167 583.5 581.167 583.5 581.833 578.167 581.833ZM585.5 581.167 590.833 581.167 590.833 581.833 585.5 581.833ZM592.833 581.167 598.167 581.167 598.167 581.833 592.833 581.833ZM600.167 581.167 605.5 581.167 605.5 581.833 600.167 581.833ZM607.5 581.167 612.833 581.167 612.833 581.833 607.5 581.833ZM614.833 581.167 620.167 581.167 620.167 581.833 614.833 581.833ZM622.167 581.167 627.5 581.167 627.5 581.833 622.167 581.833ZM629.5 581.167 634.833 581.167 634.833 581.833 629.5 581.833ZM636.833 581.167 642.167 581.167 642.167 581.833 636.833 581.833ZM644.167 581.167 649.5 581.167 649.5 581.833 644.167 581.833ZM651.5 581.167 656.833 581.167 656.833 581.833 651.5 581.833ZM658.833 581.167 664.167 581.167 664.167 581.833 658.833 581.833ZM666.167 581.167 671.5 581.167 671.5 581.833 666.167 581.833ZM673.5 581.167 678.833 581.167 678.833 581.833 673.5 581.833ZM680.833 581.167 686.167 581.167 686.167 581.833 680.833 581.833ZM688.167 581.167 693.5 581.167 693.5 581.833 688.167 581.833ZM695.5 581.167 700.833 581.167 700.833 581.833 695.5 581.833ZM702.833 581.167 708.167 581.167 708.167 581.833 702.833 581.833ZM710.167 581.167 715.5 581.167 715.5 581.833 710.167 581.833ZM717.5 581.167 722.833 581.167 722.833 581.833 717.5 581.833ZM724.833 581.167 729.451 581.167 729.451 581.833 724.833 581.833ZM728.118 577.5 736.118 581.5 728.118 585.5Z" fill="#5B9BD5"/><path d="M1.79817e-07-0.333333 5.33333-0.33333 5.33333 0.333336-1.79817e-07 0.333333ZM7.33333-0.333329 12.6667-0.333326 12.6667 0.33334 7.33333 0.333337ZM14.6667-0.333325 20-0.333323 20 0.333344 14.6667 0.333341ZM22-0.333321 27.3333-0.333319 27.3333 0.333348 22 0.333345ZM29.3333-0.333318 34.6667-0.333315 34.6667 0.333352 29.3333 0.333349ZM36.6667-0.333314 42-0.333311 42 0.333356 36.6667 0.333353ZM44-0.33331 49.3333-0.333307 49.3333 0.33336 44 0.333357ZM51.3333-0.333306 56.6667-0.333303 56.6667 0.333364 51.3333 0.333361ZM58.6667-0.333302 64-0.333299 64 0.333368 58.6667 0.333365ZM66-0.333298 71.3333-0.333295 71.3333 0.333372 66 0.333369ZM73.3333-0.333294 78.6667-0.333291 78.6667 0.333376 73.3333 0.333373ZM80.6667-0.33329 86-0.333287 86 0.33338 80.6667 0.333377ZM88-0.333286 93.3333-0.333283 93.3333 0.333384 88 0.333381ZM95.3333-0.333282 100.667-0.333279 100.667 0.333388 95.3333 0.333385ZM102.667-0.333278 108-0.333275 108 0.333392 102.667 0.333389ZM110-0.333274 115.333-0.333271 115.333 0.333396 110 0.333393ZM117.333-0.33327 122.667-0.333267 122.667 0.3334 117.333 0.333397ZM124.667-0.333266 130-0.333263 130 0.333403 124.667 0.333401ZM132-0.333262 137.333-0.333259 137.333 0.333407 132 0.333405ZM139.333-0.333258 144.667-0.333255 144.667 0.333411 139.333 0.333408ZM146.667-0.333254 152-0.333251 152 0.333415 146.667 0.333412ZM154-0.33325 159.333-0.333247 159.333 0.333419 154 0.333416ZM161.333-0.333246 166.667-0.333243 166.667 0.333423 161.333 0.33342ZM168.667-0.333242 174-0.333239 174 0.333427 168.667 0.333424ZM176-0.333238 181.333-0.333236 181.333 0.333431 176 0.333428ZM183.333-0.333234 187.951-0.333232 187.951 0.333435 183.333 0.333432ZM186.618-3.9999 194.618 0.000104987 186.618 4.0001Z" fill="#5B9BD5" transform="matrix(-1 0 0 1 736.118 624.5)"/><path d="M429.833 390.5 429.833 395.833 429.167 395.833 429.167 390.5ZM429.833 397.833 429.833 403.167 429.167 403.167 429.167 397.833ZM429.833 405.167 429.833 410.5 429.167 410.5 429.167 405.167ZM429.833 412.5 429.833 417.833 429.167 417.833 429.167 412.5ZM429.833 419.833 429.833 422.069 429.167 422.069 429.167 419.833ZM433.5 420.736 429.5 428.736 425.5 420.736Z" fill="#5B9BD5"/><path d="M0.333333-2.36129e-06 0.333371 5.33333-0.333296 5.33334-0.333333 2.36129e-06ZM0.333385 7.33333 0.333391 8.15391-0.333276 8.15391-0.333281 7.33334ZM4.00005 6.82055 0.000104987 14.8206-3.99995 6.82061Z" fill="#5B9BD5" transform="matrix(1 0 0 -1 516.5 337.321)"/><text fill="#7F7F7F" font-family="Calibri,Calibri_MSFontService,sans-serif" font-weight="400" font-size="13" transform="translate(396.932 365)">Registers FL <tspan font-size="13" x="-1.83331" y="16">experiments</tspan><tspan font-size="13" x="73.5058" y="-16">Sends info about </tspan><tspan font-size="13" x="77.1725" y="0">the Federation. </tspan><tspan font-size="13" x="75.4192" y="16">Returns training </tspan><tspan font-size="13" x="96.8392" y="32">artifacts</tspan></text><path d="M429.5 322.5 429.5 345.939" stroke="#5B9BD5" stroke-width="0.666667" stroke-miterlimit="8" stroke-dasharray="5.33333 2" fill="none" fill-rule="evenodd"/><path d="M516.5 407.5 516.5 429.298" stroke="#5B9BD5" stroke-width="0.666667" stroke-miterlimit="8" stroke-dasharray="5.33333 2" fill="none" fill-rule="evenodd"/></g></svg>